<?xml version="1.0" standalone="no"?>
<!DOCTYPE svg PUBLIC "-//W3C//DTD SVG 20010904//EN"
 "http://www.w3.org/TR/2001/REC-SVG-20010904/DTD/svg10.dtd">
<svg version="1.0" xmlns="http://www.w3.org/2000/svg"
 width="313.000000pt" height="313.000000pt" viewBox="0 0 313.000000 313.000000"
 preserveAspectRatio="xMidYMid meet">
<metadata>
Created by potrace 1.14, written by Peter Selinger 2001-2017
</metadata>
<g transform="translate(0.000000,313.000000) scale(0.100000,-0.100000)"
fill="#000000" stroke="none">
<path d="M1846 3050 c-63 -46 -142 -89 -192 -104 -20 -6 -22 -2 -26 54 -2 33
-7 63 -11 66 -4 4 -51 -13 -105 -39 -53 -26 -160 -69 -236 -97 -77 -27 -173
-69 -213 -92 -99 -57 -199 -140 -232 -194 -14 -24 -29 -44 -32 -44 -3 0 -12
25 -19 55 -22 92 -17 95 -143 -99 -47 -73 -85 -146 -97 -184 -33 -106 -44
-277 -31 -464 21 -295 31 -392 47 -463 13 -55 15 -91 9 -160 l-7 -90 -13 40
c-22 74 -69 145 -95 145 -21 0 -9 -28 28 -66 33 -33 42 -52 57 -119 11 -48 18
-124 19 -189 1 -109 1 -110 -24 -118 -19 -6 -17 -7 12 -4 21 3 40 1 43 -3 2
-5 18 -61 34 -125 53 -206 137 -332 344 -517 178 -160 257 -199 444 -220 193
-21 301 9 491 135 273 183 356 282 443 526 12 36 24 67 25 69 2 2 18 -2 36 -8
l33 -11 -24 18 -23 19 16 74 c10 41 31 117 48 169 31 94 53 127 117 170 15 10
20 21 16 32 -12 30 -61 -5 -106 -75 l-40 -62 6 90 c5 62 14 107 31 146 46 107
119 473 131 650 7 112 -10 204 -63 344 -35 91 -98 222 -136 283 -24 39 -38 29
-38 -28 0 -19 -3 -45 -6 -57 -6 -21 -8 -20 -36 18 -16 23 -44 76 -62 118 -40
92 -99 209 -120 236 -14 19 -15 19 -29 -15 -8 -19 -17 -44 -21 -54 -10 -28
-15 -17 -37 75 -25 108 -49 179 -58 179 -5 0 -21 -19 -37 -42 l-29 -42 -3 62
c-2 34 -6 62 -10 62 -4 0 -38 -22 -76 -50z m-483 -859 c109 -24 233 -33 421
-32 l198 1 107 -36 c138 -47 172 -65 210 -111 82 -99 115 -362 79 -623 -10
-68 -18 -165 -18 -215 -1 -373 -63 -566 -246 -764 -56 -60 -121 -114 -349
-288 -58 -45 -137 -63 -273 -63 -133 0 -247 21 -315 58 -63 34 -313 291 -396
407 -110 155 -140 241 -161 460 -12 120 -6 269 21 527 10 100 73 364 109 461
27 71 74 141 118 175 30 23 53 29 176 44 146 17 236 17 319 -1z"/>
<path d="M957 1783 c-51 -17 -137 -85 -137 -109 0 -20 13 -18 72 13 82 43 144
43 307 -2 30 -8 65 -12 78 -9 32 8 42 50 17 74 -46 46 -241 65 -337 33z"/>
<path d="M1930 1753 c-104 -11 -171 -60 -134 -98 19 -19 54 -19 124 0 123 34
241 15 299 -49 33 -35 55 -35 47 0 -17 65 -88 119 -183 139 -67 15 -85 15
-153 8z"/>
<path d="M970 1505 c-61 -19 -128 -78 -151 -133 -21 -49 -23 -62 -10 -62 5 0
11 10 15 23 10 41 82 113 137 137 41 17 66 21 115 18 112 -7 195 -82 229 -204
13 -47 13 -48 14 -14 1 78 -75 185 -157 221 -60 26 -137 32 -192 14z"/>
<path d="M974 1406 c-41 -41 -44 -47 -44 -98 0 -33 5 -59 13 -65 6 -5 48 -17
91 -26 72 -15 82 -15 103 -2 27 18 47 11 38 -13 -5 -13 -2 -13 14 2 11 10 25
41 31 68 9 45 8 56 -11 95 -28 59 -69 83 -138 83 -50 0 -57 -3 -97 -44z m75
-20 c9 -11 10 -20 1 -36 -13 -24 -38 -23 -53 1 -23 37 25 68 52 35z"/>
<path d="M1873 1429 c-51 -15 -139 -102 -157 -156 -24 -71 -19 -74 13 -10 37
74 62 101 125 132 134 67 304 -10 348 -158 l13 -42 3 37 c6 68 -61 158 -145
193 -39 17 -149 19 -200 4z"/>
<path d="M1895 1376 c-87 -39 -121 -154 -67 -223 16 -21 20 -22 97 -11 44 6
96 11 115 11 19 0 40 8 47 16 18 23 16 101 -5 141 -30 61 -125 95 -187 66z
m35 -69 c0 -24 -18 -39 -41 -35 -29 4 -38 37 -14 54 20 15 55 2 55 -19z"/>
<path d="M1290 875 c0 -70 67 -120 177 -131 126 -13 214 33 213 114 l-1 37
-20 -38 c-11 -21 -32 -42 -47 -48 -37 -14 -173 -13 -219 1 -42 14 -83 46 -83
66 0 7 -4 16 -10 19 -6 4 -10 -5 -10 -20z"/>
<path d="M1053 679 c28 -76 69 -139 122 -187 64 -59 163 -117 215 -126 l35 -7
-25 16 -25 16 30 -8 c17 -4 52 -6 79 -5 58 2 56 -5 -5 -18 -39 -8 -34 -9 36
-6 69 2 92 8 159 40 90 43 143 88 192 161 58 88 65 85 -178 85 -247 0 -540 31
-631 66 -15 5 -15 2 -4 -27z m302 -65 c50 -7 133 -14 185 -15 95 -1 130 -10
130 -31 0 -29 -425 13 -455 44 -7 8 -6 9 3 4 6 -4 12 -3 12 2 0 12 23 12 125
-4z"/>
<path d="M1905 650 c3 -5 8 -10 11 -10 2 0 4 5 4 10 0 6 -5 10 -11 10 -5 0 -7
-4 -4 -10z"/>
<path d="M1695 334 c-38 -24 -95 -50 -125 -59 -54 -15 -54 -15 -12 -11 51 5
133 43 182 85 47 40 38 37 -45 -15z"/>
<path d="M1253 344 c18 -22 116 -74 139 -74 7 0 -16 14 -52 31 -36 17 -74 38
-85 47 -20 17 -20 17 -2 -4z"/>
<path d="M2449 753 c-13 -16 -12 -17 4 -4 9 7 17 15 17 17 0 8 -8 3 -21 -13z"/>
</g>
</svg>
